# xmcd
#
# Track frame offsets:
#	150
#	21291
#	39375
#	57125
#	76595
#	91496
#	111788
#	132819
#	151175
#	176148
#	194163
#
# Disc length: 3059 seconds
#
# Revision: 0
# Processed by: cddbd v1.5.2PL0 Copyright (c) Steve Scherf et al.
# Submitted via: EasyCDDAExtractor 10.0.1.1
#
DISCID=870bf10b
DTITLE=The Bethlehem Blues Collective - Act Of God
DYEAR=2006
DGENRE=Blues
TTITLE0=Act Of God
TTITLE1=A Little Faith
TTITLE2=Bless You
TTITLE3=Blues and Rock and Roll
TTITLE4=New Jerusalem Freedom
TTITLE5=Riding With The Son
TTITLE6=Run The Race Hard
TTITLE7=Why Do We Do It
TTITLE8=Sinner
TTITLE9=Thank You Jusus
TTITLE10=Dale's Testimony
EXTD=
EXTT0=
EXTT1=
EXTT2=
EXTT3=
EXTT4=
EXTT5=
EXTT6=
EXTT7=
EXTT8=
EXTT9=
EXTT10=
PLAYORDER=
